<mxfile host="app.diagrams.net" modified="2024-02-23T19:25:12.427Z" agent="Mozilla/5.0 (Windows NT 10.0; Win64; x64) AppleWebKit/537.36 (KHTML, like Gecko) Chrome/122.0.0.0 Safari/537.36" etag="sUpBtku0AOUB9RggFs6h" version="23.1.6" type="github">
  <diagram name="Página-1" id="KlPI-CfHalIJE0JB_ngC">
    <mxGraphModel dx="1687" dy="878" grid="1" gridSize="10" guides="1" tooltips="1" connect="1" arrows="1" fold="1" page="1" pageScale="1" pageWidth="827" pageHeight="1169" math="0" shadow="0">
      <root>
        <mxCell id="0" />
        <mxCell id="1" parent="0" />
        <mxCell id="x9AwBMhxoDD6r6XWOeWR-1" value="&amp;lt;&amp;lt;execution enviroment&amp;gt;&amp;gt;&lt;br&gt;&lt;b&gt;Client Browser&lt;/b&gt;" style="verticalAlign=top;align=center;spacingTop=8;spacingLeft=2;spacingRight=12;shape=cube;size=10;direction=south;fontStyle=0;html=1;whiteSpace=wrap;" vertex="1" parent="1">
          <mxGeometry x="30" y="305" width="180" height="130" as="geometry" />
        </mxCell>
        <mxCell id="x9AwBMhxoDD6r6XWOeWR-2" value="&amp;lt;&amp;lt;execution enviroment&amp;gt;&amp;gt;&lt;br&gt;&lt;b&gt;Web Server&lt;/b&gt;" style="verticalAlign=top;align=center;spacingTop=8;spacingLeft=2;spacingRight=12;shape=cube;size=10;direction=south;fontStyle=0;html=1;whiteSpace=wrap;" vertex="1" parent="1">
          <mxGeometry x="410" y="170" width="230" height="400" as="geometry" />
        </mxCell>
        <mxCell id="x9AwBMhxoDD6r6XWOeWR-3" value="&amp;lt;&amp;lt;execution enviroment&amp;gt;&amp;gt;&lt;br&gt;&lt;b&gt;App Server&lt;/b&gt;" style="verticalAlign=top;align=center;spacingTop=8;spacingLeft=2;spacingRight=12;shape=cube;size=10;direction=south;fontStyle=0;html=1;whiteSpace=wrap;" vertex="1" parent="1">
          <mxGeometry x="827" y="170" width="220" height="400" as="geometry" />
        </mxCell>
        <mxCell id="x9AwBMhxoDD6r6XWOeWR-4" value="&amp;lt;&amp;lt;execution enviroment&amp;gt;&amp;gt;&lt;br&gt;&lt;b&gt;BD Coorp&lt;br&gt;&lt;br&gt;&lt;br&gt;&lt;/b&gt;" style="verticalAlign=top;align=center;spacingTop=8;spacingLeft=2;spacingRight=12;shape=cube;size=10;direction=south;fontStyle=0;html=1;whiteSpace=wrap;" vertex="1" parent="1">
          <mxGeometry x="435" y="630" width="180" height="190" as="geometry" />
        </mxCell>
        <mxCell id="x9AwBMhxoDD6r6XWOeWR-9" value="Deployment DuckEpoch Application" style="shape=umlFrame;whiteSpace=wrap;html=1;pointerEvents=0;width=160;height=35;" vertex="1" parent="1">
          <mxGeometry y="95" width="1090" height="755" as="geometry" />
        </mxCell>
        <mxCell id="x9AwBMhxoDD6r6XWOeWR-27" value="«component»&lt;br&gt;&lt;b&gt;Auction House&lt;/b&gt;" style="html=1;dropTarget=0;whiteSpace=wrap;" vertex="1" parent="1">
          <mxGeometry x="452.5" y="260" width="145" height="60" as="geometry" />
        </mxCell>
        <mxCell id="x9AwBMhxoDD6r6XWOeWR-28" value="" style="shape=module;jettyWidth=8;jettyHeight=4;" vertex="1" parent="x9AwBMhxoDD6r6XWOeWR-27">
          <mxGeometry x="1" width="20" height="20" relative="1" as="geometry">
            <mxPoint x="-27" y="7" as="offset" />
          </mxGeometry>
        </mxCell>
        <mxCell id="x9AwBMhxoDD6r6XWOeWR-29" value="«component»&lt;br&gt;&lt;b&gt;Game Database&lt;/b&gt;" style="html=1;dropTarget=0;whiteSpace=wrap;" vertex="1" parent="1">
          <mxGeometry x="452.5" y="340" width="145" height="60" as="geometry" />
        </mxCell>
        <mxCell id="x9AwBMhxoDD6r6XWOeWR-30" value="" style="shape=module;jettyWidth=8;jettyHeight=4;" vertex="1" parent="x9AwBMhxoDD6r6XWOeWR-29">
          <mxGeometry x="1" width="20" height="20" relative="1" as="geometry">
            <mxPoint x="-27" y="7" as="offset" />
          </mxGeometry>
        </mxCell>
        <mxCell id="x9AwBMhxoDD6r6XWOeWR-31" value="«component»&lt;br&gt;&lt;b&gt;DPS Calculator&lt;/b&gt;" style="html=1;dropTarget=0;whiteSpace=wrap;" vertex="1" parent="1">
          <mxGeometry x="452.5" y="410" width="145" height="60" as="geometry" />
        </mxCell>
        <mxCell id="x9AwBMhxoDD6r6XWOeWR-32" value="" style="shape=module;jettyWidth=8;jettyHeight=4;" vertex="1" parent="x9AwBMhxoDD6r6XWOeWR-31">
          <mxGeometry x="1" width="20" height="20" relative="1" as="geometry">
            <mxPoint x="-27" y="7" as="offset" />
          </mxGeometry>
        </mxCell>
        <mxCell id="x9AwBMhxoDD6r6XWOeWR-33" value="«component»&lt;br&gt;&lt;b&gt;Build Creator&lt;/b&gt;" style="html=1;dropTarget=0;whiteSpace=wrap;" vertex="1" parent="1">
          <mxGeometry x="452.5" y="500" width="145" height="60" as="geometry" />
        </mxCell>
        <mxCell id="x9AwBMhxoDD6r6XWOeWR-34" value="" style="shape=module;jettyWidth=8;jettyHeight=4;" vertex="1" parent="x9AwBMhxoDD6r6XWOeWR-33">
          <mxGeometry x="1" width="20" height="20" relative="1" as="geometry">
            <mxPoint x="-27" y="7" as="offset" />
          </mxGeometry>
        </mxCell>
        <mxCell id="x9AwBMhxoDD6r6XWOeWR-36" value="«component»&lt;div&gt;&lt;b&gt;Manage BD&lt;/b&gt;&lt;/div&gt;" style="html=1;dropTarget=0;whiteSpace=wrap;" vertex="1" parent="1">
          <mxGeometry x="864.5" y="260" width="145" height="60" as="geometry" />
        </mxCell>
        <mxCell id="x9AwBMhxoDD6r6XWOeWR-37" value="" style="shape=module;jettyWidth=8;jettyHeight=4;" vertex="1" parent="x9AwBMhxoDD6r6XWOeWR-36">
          <mxGeometry x="1" width="20" height="20" relative="1" as="geometry">
            <mxPoint x="-27" y="7" as="offset" />
          </mxGeometry>
        </mxCell>
        <mxCell id="x9AwBMhxoDD6r6XWOeWR-38" value="" style="rounded=0;orthogonalLoop=1;jettySize=auto;html=1;endArrow=halfCircle;endFill=0;endSize=6;strokeWidth=1;sketch=0;exitX=0.5;exitY=1;exitDx=0;exitDy=0;" edge="1" target="x9AwBMhxoDD6r6XWOeWR-40" parent="1" source="x9AwBMhxoDD6r6XWOeWR-31">
          <mxGeometry relative="1" as="geometry">
            <mxPoint x="545" y="472.5" as="sourcePoint" />
          </mxGeometry>
        </mxCell>
        <mxCell id="x9AwBMhxoDD6r6XWOeWR-39" value="" style="rounded=0;orthogonalLoop=1;jettySize=auto;html=1;endArrow=oval;endFill=0;sketch=0;sourcePerimeterSpacing=0;targetPerimeterSpacing=0;endSize=10;exitX=0.5;exitY=0;exitDx=0;exitDy=0;" edge="1" target="x9AwBMhxoDD6r6XWOeWR-40" parent="1" source="x9AwBMhxoDD6r6XWOeWR-33">
          <mxGeometry relative="1" as="geometry">
            <mxPoint x="505" y="472.5" as="sourcePoint" />
          </mxGeometry>
        </mxCell>
        <mxCell id="x9AwBMhxoDD6r6XWOeWR-40" value="" style="ellipse;whiteSpace=wrap;html=1;align=center;aspect=fixed;fillColor=none;strokeColor=none;resizable=0;perimeter=centerPerimeter;rotatable=0;allowArrows=0;points=[];outlineConnect=1;" vertex="1" parent="1">
          <mxGeometry x="520" y="480" width="10" height="10" as="geometry" />
        </mxCell>
        <mxCell id="x9AwBMhxoDD6r6XWOeWR-43" value="" style="ellipse;whiteSpace=wrap;html=1;align=center;aspect=fixed;fillColor=none;strokeColor=none;resizable=0;perimeter=centerPerimeter;rotatable=0;allowArrows=0;points=[];outlineConnect=1;" vertex="1" parent="1">
          <mxGeometry x="520" y="310" width="10" height="10" as="geometry" />
        </mxCell>
        <mxCell id="x9AwBMhxoDD6r6XWOeWR-44" value="«component»&lt;div&gt;&lt;b&gt;Auction Transitions Report&lt;/b&gt;&lt;/div&gt;" style="html=1;dropTarget=0;whiteSpace=wrap;" vertex="1" parent="1">
          <mxGeometry x="864.5" y="360" width="145" height="80" as="geometry" />
        </mxCell>
        <mxCell id="x9AwBMhxoDD6r6XWOeWR-45" value="" style="shape=module;jettyWidth=8;jettyHeight=4;" vertex="1" parent="x9AwBMhxoDD6r6XWOeWR-44">
          <mxGeometry x="1" width="20" height="20" relative="1" as="geometry">
            <mxPoint x="-27" y="7" as="offset" />
          </mxGeometry>
        </mxCell>
        <mxCell id="x9AwBMhxoDD6r6XWOeWR-46" value="«component»&lt;div&gt;&lt;b&gt;MetaGame Report&lt;/b&gt;&lt;/div&gt;" style="html=1;dropTarget=0;whiteSpace=wrap;" vertex="1" parent="1">
          <mxGeometry x="864.5" y="460" width="145" height="60" as="geometry" />
        </mxCell>
        <mxCell id="x9AwBMhxoDD6r6XWOeWR-47" value="" style="shape=module;jettyWidth=8;jettyHeight=4;" vertex="1" parent="x9AwBMhxoDD6r6XWOeWR-46">
          <mxGeometry x="1" width="20" height="20" relative="1" as="geometry">
            <mxPoint x="-27" y="7" as="offset" />
          </mxGeometry>
        </mxCell>
        <mxCell id="x9AwBMhxoDD6r6XWOeWR-48" value="&amp;lt;&amp;lt;protocol&amp;gt;&amp;gt;&lt;br&gt;HTTP" style="edgeStyle=orthogonalEdgeStyle;rounded=0;orthogonalLoop=1;jettySize=auto;html=1;exitX=0;exitY=0;exitDx=60;exitDy=0;exitPerimeter=0;entryX=0.49;entryY=0.996;entryDx=0;entryDy=0;entryPerimeter=0;" edge="1" parent="1" source="x9AwBMhxoDD6r6XWOeWR-1" target="x9AwBMhxoDD6r6XWOeWR-2">
          <mxGeometry relative="1" as="geometry" />
        </mxCell>
        <mxCell id="x9AwBMhxoDD6r6XWOeWR-49" value="&amp;lt;&amp;lt;protocol&amp;gt;&amp;gt;&lt;br&gt;HTTP" style="edgeStyle=orthogonalEdgeStyle;rounded=0;orthogonalLoop=1;jettySize=auto;html=1;exitX=0;exitY=0;exitDx=195;exitDy=0;exitPerimeter=0;entryX=0.488;entryY=0.995;entryDx=0;entryDy=0;entryPerimeter=0;" edge="1" parent="1" source="x9AwBMhxoDD6r6XWOeWR-2" target="x9AwBMhxoDD6r6XWOeWR-3">
          <mxGeometry relative="1" as="geometry" />
        </mxCell>
        <mxCell id="x9AwBMhxoDD6r6XWOeWR-50" value="&amp;lt;&amp;lt;protocol&amp;gt;&amp;gt;&lt;br&gt;TCP/IP" style="edgeStyle=orthogonalEdgeStyle;rounded=0;orthogonalLoop=1;jettySize=auto;html=1;exitX=0;exitY=0;exitDx=400;exitDy=115;exitPerimeter=0;entryX=0;entryY=0;entryDx=105;entryDy=0;entryPerimeter=0;" edge="1" parent="1" source="x9AwBMhxoDD6r6XWOeWR-3" target="x9AwBMhxoDD6r6XWOeWR-4">
          <mxGeometry x="0.1913" relative="1" as="geometry">
            <mxPoint as="offset" />
          </mxGeometry>
        </mxCell>
      </root>
    </mxGraphModel>
  </diagram>
</mxfile>
